{"asset":{"version":"2.0","generator":"Blockbench 5.1.3 glTF exporter"},"scenes":[{"nodes":[18],"name":"blockbench_export"}],"scene":0,"nodes":[{"translation":[0,0,-0.03125],"name":"beveled_cuboid","mesh":0},{"rotation":[0,-0.7071067811865475,0,0.7071067811865476],"translation":[0.1875,0,0],"name":"beveled_cuboid","mesh":1},{"rotation":[0,-0.7071067811865475,0,0.7071067811865476],"translation":[-0.1875,0,0],"name":"beveled_cuboid","mesh":2},{"rotation":[-0.1865240360087346,0,0,0.9824503977255098],"translation":[0,-0.1875,-0.2125],"name":"beveled_cuboid","mesh":3},{"rotation":[1,0,0,6.123233995736766e-17],"translation":[-0.375,-0.0875,0],"name":"mesh","mesh":4},{"rotation":[1,0,0,6.123233995736766e-17],"translation":[0.375,-0.0875,0],"name":"mesh","mesh":5},{"rotation":[0,-1,0,6.123233995736766e-17],"translation":[-0.08125,-0.18125,-0.18125],"name":"mesh","mesh":6},{"rotation":[0,-1,0,6.123233995736766e-17],"translation":[0.08125,-0.18125,-0.18125],"name":"mesh","mesh":7},{"rotation":[1,0,0,6.123233995736766e-17],"translation":[-0.08125,-0.00625,-0.18125],"name":"mesh","mesh":8},{"rotation":[1,0,0,6.123233995736766e-17],"translation":[0.08125,-0.00625,-0.18125],"name":"mesh","mesh":9},{"rotation":[-0.7071067811865475,0,0,0.7071067811865476],"translation":[0.375,0,0],"name":"torus_selection","mesh":10},{"rotation":[-0.7071067811865475,0,0,0.7071067811865476],"translation":[-0.375,0,0],"name":"torus_selection","mesh":11},{"rotation":[-0.7071067811865475,0,0,0.7071067811865476],"translation":[0.36250000000000004,0,0],"name":"torus","mesh":12},{"rotation":[0,-1,0,6.123233995736766e-17],"translation":[0.36250000000000004,-0.13125,0],"name":"mesh","mesh":13},{"rotation":[-0.7071067811865475,0,0,0.7071067811865476],"translation":[-0.36250000000000004,0,0],"name":"torus","mesh":14},{"rotation":[0,-1,0,6.123233995736766e-17],"translation":[-0.36250000000000004,-0.13125,0],"name":"mesh","mesh":15},{"rotation":[0,-1,0,6.123233995736766e-17],"translation":[0,-0.15625000000000003,-0.00625],"name":"mesh","mesh":16},{"rotation":[1,-3.74939945665465e-33,-6.123233995736776e-17,6.123233995736766e-17],"translation":[0,0.14375,-0.00625],"name":"mesh","mesh":17},{"name":"root","children":[0,1,2,3,4,5,6,7,8,9,10,11,12,13,14,15,16,17]}],"bufferViews":[{"buffer":0,"byteOffset":0,"byteLength":1392,"target":34962,"byteStride":12},{"buffer":0,"byteOffset":1392,"byteLength":1392,"target":34962,"byteStride":12},{"buffer":0,"byteOffset":2784,"byteLength":928,"target":34962,"byteStride":8},{"buffer":0,"byteOffset":3712,"byteLength":312,"target":34963},{"buffer":0,"byteOffset":4024,"byteLength":1152,"target":34962,"byteStride":12},{"buffer":0,"byteOffset":5176,"byteLength":1152,"target":34962,"byteStride":12},{"buffer":0,"byteOffset":6328,"byteLength":768,"target":34962,"byteStride":8},{"buffer":0,"byteOffset":7096,"byteLength":264,"target":34963},{"buffer":0,"byteOffset":7360,"byteLength":1152,"target":34962,"byteStride":12},{"buffer":0,"byteOffset":8512,"byteLength":1152,"target":34962,"byteStride":12},{"buffer":0,"byteOffset":9664,"byteLength":768,"target":34962,"byteStride":8},{"buffer":0,"byteOffset":10432,"byteLength":264,"target":34963},{"buffer":0,"byteOffset":10696,"byteLength":1152,"target":34962,"byteStride":12},{"buffer":0,"byteOffset":11848,"byteLength":1152,"target":34962,"byteStride":12},{"buffer":0,"byteOffset":13000,"byteLength":768,"target":34962,"byteStride":8},{"buffer":0,"byteOffset":13768,"byteLength":264,"target":34963},{"buffer":0,"byteOffset":14032,"byteLength":216,"target":34962,"byteStride":12},{"buffer":0,"byteOffset":14248,"byteLength":216,"target":34962,"byteStride":12},{"buffer":0,"byteOffset":14464,"byteLength":144,"target":34962,"byteStride":8},{"buffer":0,"byteOffset":14608,"byteLength":48,"target":34963},{"buffer":0,"byteOffset":14656,"byteLength":216,"target":34962,"byteStride":12},{"buffer":0,"byteOffset":14872,"byteLength":216,"target":34962,"byteStride":12},{"buffer":0,"byteOffset":15088,"byteLength":144,"target":34962,"byteStride":8},{"buffer":0,"byteOffset":15232,"byteLength":48,"target":34963},{"buffer":0,"byteOffset":15280,"byteLength":528,"target":34962,"byteStride":12},{"buffer":0,"byteOffset":15808,"byteLength":528,"target":34962,"byteStride":12},{"buffer":0,"byteOffset":16336,"byteLength":352,"target":34962,"byteStride":8},{"buffer":0,"byteOffset":16688,"byteLength":120,"target":34963},{"buffer":0,"byteOffset":16808,"byteLength":528,"target":34962,"byteStride":12},{"buffer":0,"byteOffset":17336,"byteLength":528,"target":34962,"byteStride":12},{"buffer":0,"byteOffset":17864,"byteLength":352,"target":34962,"byteStride":8},{"buffer":0,"byteOffset":18216,"byteLength":120,"target":34963},{"buffer":0,"byteOffset":18336,"byteLength":528,"target":34962,"byteStride":12},{"buffer":0,"byteOffset":18864,"byteLength":528,"target":34962,"byteStride":12},{"buffer":0,"byteOffset":19392,"byteLength":352,"target":34962,"byteStride":8},{"buffer":0,"byteOffset":19744,"byteLength":120,"target":34963},{"buffer":0,"byteOffset":19864,"byteLength":528,"target":34962,"byteStride":12},{"buffer":0,"byteOffset":20392,"byteLength":528,"target":34962,"byteStride":12},{"buffer":0,"byteOffset":20920,"byteLength":352,"target":34962,"byteStride":8},{"buffer":0,"byteOffset":21272,"byteLength":120,"target":34963},{"buffer":0,"byteOffset":21392,"byteLength":1152,"target":34962,"byteStride":12},{"buffer":0,"byteOffset":22544,"byteLength":1152,"target":34962,"byteStride":12},{"buffer":0,"byteOffset":23696,"byteLength":768,"target":34962,"byteStride":8},{"buffer":0,"byteOffset":24464,"byteLength":288,"target":34963},{"buffer":0,"byteOffset":24752,"byteLength":1152,"target":34962,"byteStride":12},{"buffer":0,"byteOffset":25904,"byteLength":1152,"target":34962,"byteStride":12},{"buffer":0,"byteOffset":27056,"byteLength":768,"target":34962,"byteStride":8},{"buffer":0,"byteOffset":27824,"byteLength":288,"target":34963},{"buffer":0,"byteOffset":28112,"byteLength":3456,"target":34962,"byteStride":12},{"buffer":0,"byteOffset":31568,"byteLength":3456,"target":34962,"byteStride":12},{"buffer":0,"byteOffset":35024,"byteLength":2304,"target":34962,"byteStride":8},{"buffer":0,"byteOffset":37328,"byteLength":864,"target":34963},{"buffer":0,"byteOffset":38192,"byteLength":216,"target":34962,"byteStride":12},{"buffer":0,"byteOffset":38408,"byteLength":216,"target":34962,"byteStride":12},{"buffer":0,"byteOffset":38624,"byteLength":144,"target":34962,"byteStride":8},{"buffer":0,"byteOffset":38768,"byteLength":48,"target":34963},{"buffer":0,"byteOffset":38816,"byteLength":3456,"target":34962,"byteStride":12},{"buffer":0,"byteOffset":42272,"byteLength":3456,"target":34962,"byteStride":12},{"buffer":0,"byteOffset":45728,"byteLength":2304,"target":34962,"byteStride":8},{"buffer":0,"byteOffset":48032,"byteLength":864,"target":34963},{"buffer":0,"byteOffset":48896,"byteLength":216,"target":34962,"byteStride":12},{"buffer":0,"byteOffset":49112,"byteLength":216,"target":34962,"byteStride":12},{"buffer":0,"byteOffset":49328,"byteLength":144,"target":34962,"byteStride":8},{"buffer":0,"byteOffset":49472,"byteLength":48,"target":34963},{"buffer":0,"byteOffset":49520,"byteLength":216,"target":34962,"byteStride":12},{"buffer":0,"byteOffset":49736,"byteLength":216,"target":34962,"byteStride":12},{"buffer":0,"byteOffset":49952,"byteLength":144,"target":34962,"byteStride":8},{"buffer":0,"byteOffset":50096,"byteLength":48,"target":34963},{"buffer":0,"byteOffset":50144,"byteLength":216,"target":34962,"byteStride":12},{"buffer":0,"byteOffset":50360,"byteLength":216,"target":34962,"byteStride":12},{"buffer":0,"byteOffset":50576,"byteLength":144,"target":34962,"byteStride":8},{"buffer":0,"byteOffset":50720,"byteLength":48,"target":34963}],"buffers":[{"byteLength":50768,"uri":"data:application/octet-stream;base64,"}],"accessors":[{"bufferView":0,"componentType":5126,"count":116,"max":[0.15625,0.0625,0.34375],"min":[-0.15625,-0.0625,-0.34375],"type":"VEC3"},{"bufferView":1,"componentType":5126,"count":116,"max":[1,1,0.8586215972900391],"min":[-1,-1,-0.8586215972900391],"type":"VEC3"},{"bufferView":2,"componentType":5126,"count":116,"max":[0.6452343463897705,0.546875],"min":[0.000768749974668026,0],"type":"VEC2"},{"bufferView":3,"componentType":5123,"count":156,"max":[115],"min":[0],"type":"SCALAR"},{"bufferView":4,"componentType":5126,"count":96,"max":[0.0625,0.03125,0.078125],"min":[-0.0625,-0.03125,-0.078125],"type":"VEC3"},{"bufferView":5,"componentType":5126,"count":96,"max":[1,1,1],"min":[-1,-1,-1],"type":"VEC3"},{"bufferView":6,"componentType":5126,"count":96,"max":[0.7372856140136719,0.5625],"min":[0,0],"type":"VEC2"},{"bufferView":7,"componentType":5123,"count":132,"max":[95],"min":[0],"type":"SCALAR"},{"bufferView":8,"componentType":5126,"count":96,"max":[0.0625,0.03125,0.078125],"min":[-0.0625,-0.03125,-0.078125],"type":"VEC3"},{"bufferView":9,"componentType":5126,"count":96,"max":[1,1,1],"min":[-1,-1,-1],"type":"VEC3"},{"bufferView":10,"componentType":5126,"count":96,"max":[0.75,0.4296875],"min":[0,0],"type":"VEC2"},{"bufferView":11,"componentType":5123,"count":132,"max":[95],"min":[0],"type":"SCALAR"},{"bufferView":12,"componentType":5126,"count":96,"max":[0.09375,0.265625,0.04062499850988388],"min":[-0.09375,0.234375,-0.04062499850988388],"type":"VEC3"},{"bufferView":13,"componentType":5126,"count":96,"max":[1,1,1],"min":[-1,-1,-1],"type":"VEC3"},{"bufferView":14,"componentType":5126,"count":96,"max":[0.533356249332428,0.5128124952316284],"min":[0,0],"type":"VEC2"},{"bufferView":15,"componentType":5123,"count":132,"max":[95],"min":[0],"type":"SCALAR"},{"bufferView":16,"componentType":5126,"count":18,"max":[0.015625,0.0625,0.08749999850988388],"min":[-0.015625,0,-0.08749999850988388],"type":"VEC3"},{"bufferView":17,"componentType":5126,"count":18,"max":[0,0.9417418837547302,0.3363364040851593],"min":[-1,-1,-1],"type":"VEC3"},{"bufferView":18,"componentType":5126,"count":18,"max":[1,1],"min":[0,0],"type":"VEC2"},{"bufferView":19,"componentType":5123,"count":24,"max":[17],"min":[0],"type":"SCALAR"},{"bufferView":20,"componentType":5126,"count":18,"max":[0.015625,0.0625,0.08749999850988388],"min":[-0.015625,0,-0.08749999850988388],"type":"VEC3"},{"bufferView":21,"componentType":5126,"count":18,"max":[0,0.9417418837547302,0.3363364040851593],"min":[-1,-1,-1],"type":"VEC3"},{"bufferView":22,"componentType":5126,"count":18,"max":[1,1],"min":[0,0],"type":"VEC2"},{"bufferView":23,"componentType":5123,"count":24,"max":[17],"min":[0],"type":"SCALAR"},{"bufferView":24,"componentType":5126,"count":44,"max":[0.01875000074505806,0.2578125,0.0625],"min":[-0.01875000074505806,0.2421875,-0.375],"type":"VEC3"},{"bufferView":25,"componentType":5126,"count":44,"max":[1,1,0.20952852070331573],"min":[-1,-1,-0.1893671154975891],"type":"VEC3"},{"bufferView":26,"componentType":5126,"count":44,"max":[0.6875,0.5],"min":[0.015625,0],"type":"VEC2"},{"bufferView":27,"componentType":5123,"count":60,"max":[43],"min":[0],"type":"SCALAR"},{"bufferView":28,"componentType":5126,"count":44,"max":[0.01875000074505806,0.2578125,0.0625],"min":[-0.01875000074505806,0.2421875,-0.375],"type":"VEC3"},{"bufferView":29,"componentType":5126,"count":44,"max":[1,1,0.20952852070331573],"min":[-1,-1,-0.1893671154975891],"type":"VEC3"},{"bufferView":30,"componentType":5126,"count":44,"max":[0.6875,0.5],"min":[0.015625,0],"type":"VEC2"},{"bufferView":31,"componentType":5123,"count":60,"max":[43],"min":[0],"type":"SCALAR"},{"bufferView":32,"componentType":5126,"count":44,"max":[0.01875000074505806,0.0703125,0.0625],"min":[-0.01875000074505806,0.0546875,-0.375],"type":"VEC3"},{"bufferView":33,"componentType":5126,"count":44,"max":[1,1,0.20952852070331573],"min":[-1,-1,-0.1893671154975891],"type":"VEC3"},{"bufferView":34,"componentType":5126,"count":44,"max":[1,1],"min":[0,0],"type":"VEC2"},{"bufferView":35,"componentType":5123,"count":60,"max":[43],"min":[0],"type":"SCALAR"},{"bufferView":36,"componentType":5126,"count":44,"max":[0.01875000074505806,0.0703125,0.0625],"min":[-0.01875000074505806,0.0546875,-0.375],"type":"VEC3"},{"bufferView":37,"componentType":5126,"count":44,"max":[1,1,0.20952852070331573],"min":[-1,-1,-0.1893671154975891],"type":"VEC3"},{"bufferView":38,"componentType":5126,"count":44,"max":[1,1],"min":[0,0],"type":"VEC2"},{"bufferView":39,"componentType":5123,"count":60,"max":[43],"min":[0],"type":"SCALAR"},{"bufferView":40,"componentType":5126,"count":96,"max":[0.10290312767028809,0.11048562824726105,0.06174187362194061],"min":[-0.10290312767028809,-0.11048562824726105,-0.06174187362194061],"type":"VEC3"},{"bufferView":41,"componentType":5126,"count":96,"max":[0.9965859651565552,0.08256165683269501,0.9987668991088867],"min":[-0.9965859651565552,-0.08256165683269501,-0.9987668991088867],"type":"VEC3"},{"bufferView":42,"componentType":5126,"count":96,"max":[0.7426499724388123,0.7356187105178833],"min":[0,0],"type":"VEC2"},{"bufferView":43,"componentType":5123,"count":144,"max":[95],"min":[0],"type":"SCALAR"},{"bufferView":44,"componentType":5126,"count":96,"max":[0.10290312767028809,0.11048562824726105,0.06174187362194061],"min":[-0.10290312767028809,-0.11048562824726105,-0.06174187362194061],"type":"VEC3"},{"bufferView":45,"componentType":5126,"count":96,"max":[0.9965859651565552,0.08256165683269501,0.9987668991088867],"min":[-0.9965859651565552,-0.08256165683269501,-0.9987668991088867],"type":"VEC3"},{"bufferView":46,"componentType":5126,"count":96,"max":[0.18015000224113464,0.11139190196990967],"min":[0.0625,0],"type":"VEC2"},{"bufferView":47,"componentType":5123,"count":144,"max":[95],"min":[0],"type":"SCALAR"},{"bufferView":48,"componentType":5126,"count":288,"max":[0.125,0.15625,0.09375],"min":[-0.125,-0.15625,-0.09375],"type":"VEC3"},{"bufferView":49,"componentType":5126,"count":288,"max":[0.997810959815979,0.3603249490261078,0.9987668991088867],"min":[-0.997810959815979,-0.3603249490261078,-0.9987668991088867],"type":"VEC3"},{"bufferView":50,"componentType":5126,"count":288,"max":[0.24963125586509705,0.11331874132156372],"min":[0.0625,0],"type":"VEC2"},{"bufferView":51,"componentType":5123,"count":432,"max":[287],"min":[0],"type":"SCALAR"},{"bufferView":52,"componentType":5126,"count":18,"max":[0.015625,0.28125,0.08749999850988388],"min":[-0.015625,0.21875,-0.08749999850988388],"type":"VEC3"},{"bufferView":53,"componentType":5126,"count":18,"max":[0,0.9417418837547302,0.3363364040851593],"min":[-1,-1,-1],"type":"VEC3"},{"bufferView":54,"componentType":5126,"count":18,"max":[1,1],"min":[0,0],"type":"VEC2"},{"bufferView":55,"componentType":5123,"count":24,"max":[17],"min":[0],"type":"SCALAR"},{"bufferView":56,"componentType":5126,"count":288,"max":[0.125,0.15625,0.09375],"min":[-0.125,-0.15625,-0.09375],"type":"VEC3"},{"bufferView":57,"componentType":5126,"count":288,"max":[0.997810959815979,0.3603249490261078,0.9987668991088867],"min":[-0.997810959815979,-0.3603249490261078,-0.9987668991088867],"type":"VEC3"},{"bufferView":58,"componentType":5126,"count":288,"max":[0.24963125586509705,0.11331874132156372],"min":[0.0625,0],"type":"VEC2"},{"bufferView":59,"componentType":5123,"count":432,"max":[287],"min":[0],"type":"SCALAR"},{"bufferView":60,"componentType":5126,"count":18,"max":[0.015625,0.28125,0.08749999850988388],"min":[-0.015625,0.21875,-0.08749999850988388],"type":"VEC3"},{"bufferView":61,"componentType":5126,"count":18,"max":[0,0.9417418837547302,0.3363364040851593],"min":[-1,-1,-1],"type":"VEC3"},{"bufferView":62,"componentType":5126,"count":18,"max":[1,1],"min":[0,0],"type":"VEC2"},{"bufferView":63,"componentType":5123,"count":24,"max":[17],"min":[0],"type":"SCALAR"},{"bufferView":64,"componentType":5126,"count":18,"max":[0.015625,0.33125001192092896,0.20624999701976776],"min":[-0.015625,0.16875000298023224,-0.20624999701976776],"type":"VEC3"},{"bufferView":65,"componentType":5126,"count":18,"max":[0,0.9304084181785583,0.36652451753616333],"min":[-1,-1,-1],"type":"VEC3"},{"bufferView":66,"componentType":5126,"count":18,"max":[1,1],"min":[0,0],"type":"VEC2"},{"bufferView":67,"componentType":5123,"count":24,"max":[17],"min":[0],"type":"SCALAR"},{"bufferView":68,"componentType":5126,"count":18,"max":[0.015625,0.33125001192092896,0.20624999701976776],"min":[-0.015625,0.16875000298023224,-0.20624999701976776],"type":"VEC3"},{"bufferView":69,"componentType":5126,"count":18,"max":[0,0.9304084181785583,0.36652451753616333],"min":[-1,-1,-1],"type":"VEC3"},{"bufferView":70,"componentType":5126,"count":18,"max":[1,1],"min":[0,0],"type":"VEC2"},{"bufferView":71,"componentType":5123,"count":24,"max":[17],"min":[0],"type":"SCALAR"}],"materials":[{"pbrMetallicRoughness":{"metallicFactor":0,"roughnessFactor":1,"baseColorTexture":{"index":0}},"alphaMode":"MASK","alphaCutoff":0.05,"doubleSided":true},{"pbrMetallicRoughness":{"metallicFactor":0,"roughnessFactor":1,"baseColorTexture":{"index":1}},"alphaMode":"MASK","alphaCutoff":0.05,"doubleSided":true},{"pbrMetallicRoughness":{"metallicFactor":0,"roughnessFactor":1,"baseColorTexture":{"index":2}},"alphaMode":"MASK","alphaCutoff":0.05,"doubleSided":true},{"pbrMetallicRoughness":{"metallicFactor":0,"roughnessFactor":1,"baseColorTexture":{"index":3}},"alphaMode":"MASK","alphaCutoff":0.05,"doubleSided":true},{"pbrMetallicRoughness":{"metallicFactor":0,"roughnessFactor":1,"baseColorTexture":{"index":4}},"alphaMode":"MASK","alphaCutoff":0.05,"doubleSided":true},{"pbrMetallicRoughness":{"metallicFactor":0,"roughnessFactor":1,"baseColorTexture":{"index":5}},"alphaMode":"MASK","alphaCutoff":0.05,"doubleSided":true},{"pbrMetallicRoughness":{"metallicFactor":0,"roughnessFactor":1,"baseColorTexture":{"index":6}},"alphaMode":"MASK","alphaCutoff":0.05,"doubleSided":true}],"textures":[{"sampler":0,"source":0,"name":"body.png"},{"sampler":1,"source":1,"name":"red"},{"sampler":2,"source":2,"name":"glass.png"},{"sampler":3,"source":3,"name":"white"},{"sampler":4,"source":4,"name":"bumperstop.png"},{"sampler":5,"source":5,"name":"bumpersbottom.png"},{"sampler":6,"source":6,"name":"darkgray.png"}],"samplers":[{"magFilter":9728,"minFilter":9728,"wrapS":33071,"wrapT":33071},{"magFilter":9728,"minFilter":9728,"wrapS":33071,"wrapT":33071},{"magFilter":9728,"minFilter":9728,"wrapS":33071,"wrapT":33071},{"magFilter":9728,"minFilter":9728,"wrapS":33071,"wrapT":33071},{"magFilter":9728,"minFilter":9728,"wrapS":33071,"wrapT":33071},{"magFilter":9728,"minFilter":9728,"wrapS":33071,"wrapT":33071},{"magFilter":9728,"minFilter":9728,"wrapS":33071,"wrapT":33071}],"images":[{"mimeType":"image/png","uri":"data:image/png;base64,"},{"mimeType":"image/png","uri":"data:image/png;base64,"},{"mimeType":"image/png","uri":"data:image/png;base64,"},{"mimeType":"image/png","uri":"data:image/png;base64,"},{"mimeType":"image/png","uri":"data:image/png;base64,"},{"mimeType":"image/png","uri":"data:image/png;base64,"},{"mimeType":"image/png","uri":"data:image/png;base64,"}],"meshes":[{"primitives":[{"mode":4,"attributes":{"POSITION":0,"NORMAL":1,"TEXCOORD_0":2},"indices":3,"material":0}]},{"primitives":[{"mode":4,"attributes":{"POSITION":4,"NORMAL":5,"TEXCOORD_0":6},"indices":7,"material":1}]},{"primitives":[{"mode":4,"attributes":{"POSITION":8,"NORMAL":9,"TEXCOORD_0":10},"indices":11,"material":1}]},{"primitives":[{"mode":4,"attributes":{"POSITION":12,"NORMAL":13,"TEXCOORD_0":14},"indices":15,"material":2}]},{"primitives":[{"mode":4,"attributes":{"POSITION":16,"NORMAL":17,"TEXCOORD_0":18},"indices":19,"material":3}]},{"primitives":[{"mode":4,"attributes":{"POSITION":20,"NORMAL":21,"TEXCOORD_0":22},"indices":23,"material":3}]},{"primitives":[{"mode":4,"attributes":{"POSITION":24,"NORMAL":25,"TEXCOORD_0":26},"indices":27,"material":4}]},{"primitives":[{"mode":4,"attributes":{"POSITION":28,"NORMAL":29,"TEXCOORD_0":30},"indices":31,"material":4}]},{"primitives":[{"mode":4,"attributes":{"POSITION":32,"NORMAL":33,"TEXCOORD_0":34},"indices":35,"material":5}]},{"primitives":[{"mode":4,"attributes":{"POSITION":36,"NORMAL":37,"TEXCOORD_0":38},"indices":39,"material":5}]},{"primitives":[{"mode":4,"attributes":{"POSITION":40,"NORMAL":41,"TEXCOORD_0":42},"indices":43,"material":6}]},{"primitives":[{"mode":4,"attributes":{"POSITION":44,"NORMAL":45,"TEXCOORD_0":46},"indices":47,"material":6}]},{"primitives":[{"mode":4,"attributes":{"POSITION":48,"NORMAL":49,"TEXCOORD_0":50},"indices":51,"material":1}]},{"primitives":[{"mode":4,"attributes":{"POSITION":52,"NORMAL":53,"TEXCOORD_0":54},"indices":55,"material":3}]},{"primitives":[{"mode":4,"attributes":{"POSITION":56,"NORMAL":57,"TEXCOORD_0":58},"indices":59,"material":1}]},{"primitives":[{"mode":4,"attributes":{"POSITION":60,"NORMAL":61,"TEXCOORD_0":62},"indices":63,"material":3}]},{"primitives":[{"mode":4,"attributes":{"POSITION":64,"NORMAL":65,"TEXCOORD_0":66},"indices":67,"material":3}]},{"primitives":[{"mode":4,"attributes":{"POSITION":68,"NORMAL":69,"TEXCOORD_0":70},"indices":71,"material":3}]}]}